<?xml version="1.0" encoding="UTF-8"?>
<svg version="1.1" xmlns="http://www.w3.org/2000/svg" width="256" height="256">
<path d="M0 0 C1.50380458 -0.00570962 3.00760483 -0.01267617 4.51139832 -0.02079773 C8.57757787 -0.03867876 12.64354103 -0.03757037 16.70974803 -0.03185534 C20.11173116 -0.02875622 23.51367316 -0.03486396 26.91565043 -0.04089409 C34.94477859 -0.05492103 42.97380032 -0.05339324 51.00292969 -0.04199219 C59.2702538 -0.03051191 67.53725348 -0.0445892 75.80453485 -0.07138866 C82.91817689 -0.09358015 90.03171734 -0.10017531 97.14539152 -0.09431225 C101.38723338 -0.0909498 105.6288673 -0.09331017 109.87067986 -0.11056328 C113.86077105 -0.1260856 117.85038337 -0.12201885 121.84045601 -0.10325813 C123.299271 -0.09958684 124.7581219 -0.10263792 126.21690369 -0.11314392 C137.78484052 -0.19005331 145.76115496 1.50030053 154.30883789 9.48608398 C161.48634103 17.18074347 163.40993446 25.70020003 163.3585968 35.96749878 C163.36242235 36.7921561 163.3662479 37.61681341 163.37018937 38.46646035 C163.38044875 41.20988417 163.37654073 43.95309593 163.37255859 46.6965332 C163.37690898 48.67161247 163.38209322 50.64669005 163.38804626 52.62176514 C163.40141241 57.97305094 163.40201757 63.32426601 163.39948297 68.67556524 C163.39841162 73.14862068 163.40330082 77.6216619 163.40808839 82.09471428 C163.41917537 92.65047468 163.41962555 103.20619949 163.41357422 113.76196289 C163.40753457 124.63875823 163.41984712 135.51542421 163.44114429 146.39219749 C163.45877749 155.74276454 163.46475892 165.09329047 163.46150655 174.44387352 C163.45969627 180.0231841 163.46230442 185.60240238 163.47622108 191.18169785 C163.4888227 196.42994376 163.48683317 201.67798845 163.4738102 206.92623138 C163.47144995 208.84743188 163.47415925 210.76864665 163.48243332 212.68983078 C163.54037984 227.19558793 162.97085134 238.21867393 152.43383789 249.12670898 C144.05626225 256.91135119 135.12582366 256.84564253 124.19580078 256.80810547 C122.6919962 256.81381509 121.18819595 256.82078163 119.68440247 256.8289032 C115.61822291 256.84678422 111.55225975 256.84567584 107.48605275 256.83996081 C104.08406962 256.83686169 100.68212762 256.84296942 97.28015035 256.84899956 C89.25102219 256.8630265 81.22200046 256.86149871 73.19287109 256.85009766 C64.92554698 256.83861738 56.6585473 256.85269467 48.39126593 256.87949413 C41.27762389 256.90168562 34.16408344 256.90828078 27.05040926 256.90241772 C22.8085674 256.89905527 18.56693349 256.90141564 14.32512093 256.91866875 C10.33502973 256.93419106 6.34541742 256.93012432 2.35534477 256.9113636 C0.89652978 256.90769231 -0.56232112 256.91074339 -2.02110291 256.92124939 C-13.59346591 256.99818821 -21.5563395 255.30308806 -30.11303711 247.32592773 C-38.04174974 238.80862071 -39.21724099 230.20683339 -39.02709961 218.96655273 C-39.01807617 217.94883789 -39.00905273 216.93112305 -38.99975586 215.88256836 C-38.97634659 213.38948118 -38.94355661 210.89689414 -38.90209961 208.40405273 C-38.24725586 208.39994385 -37.59241211 208.39583496 -36.91772461 208.39160156 C-33.91163823 208.35843059 -30.907516 208.28776248 -27.90209961 208.21655273 C-26.3571582 208.20785156 -26.3571582 208.20785156 -24.78100586 208.19897461 C-17.96510587 208.00361442 -13.12750588 206.95786031 -7.90209961 202.40405273 C-4.2738334 197.52857001 -4.08398329 192.27031865 -4.90209961 186.40405273 C-6.43152469 181.60639191 -9.26279755 178.64578887 -13.6796875 176.23364258 C-18.22380579 174.53739805 -23.04279883 174.72067025 -27.83959961 174.65405273 C-31.49022461 174.57155273 -35.14084961 174.48905273 -38.90209961 174.40405273 C-38.90209961 164.83405273 -38.90209961 155.26405273 -38.90209961 145.40405273 C-27.90209961 145.21655273 -27.90209961 145.21655273 -24.48413086 145.19628906 C-17.78562595 144.99020847 -13.03008338 143.8729591 -7.90209961 139.40405273 C-4.2738334 134.52857001 -4.08398329 129.27031865 -4.90209961 123.40405273 C-6.43152469 118.60639191 -9.26279755 115.64578887 -13.6796875 113.23364258 C-18.22380579 111.53739805 -23.04279883 111.72067025 -27.83959961 111.65405273 C-31.49022461 111.57155273 -35.14084961 111.48905273 -38.90209961 111.40405273 C-38.90209961 101.83405273 -38.90209961 92.26405273 -38.90209961 82.40405273 C-27.90209961 82.21655273 -27.90209961 82.21655273 -24.48413086 82.19628906 C-17.78562595 81.99020847 -13.03008338 80.8729591 -7.90209961 76.40405273 C-4.2738334 71.52857001 -4.08398329 66.27031865 -4.90209961 60.40405273 C-6.43152469 55.60639191 -9.26279755 52.64578887 -13.6796875 50.23364258 C-18.22395306 48.53734308 -23.0417276 48.71957302 -27.83959961 48.65405273 C-28.90500977 48.6244043 -29.97041992 48.59475586 -31.06811523 48.56420898 C-33.67951748 48.49394704 -36.29004965 48.44103526 -38.90209961 48.40405273 C-38.99035322 44.92505025 -39.04290596 41.44634156 -39.08959961 37.96655273 C-39.11473633 36.99266602 -39.13987305 36.0187793 -39.16577148 35.01538086 C-39.26672137 24.95404252 -37.08415515 16.74996774 -29.92553711 9.36499023 C-20.57477891 0.52836307 -12.46847531 -0.04282058 0 0 Z M43.09790039 76.40405273 C38.28387881 83.60613226 37.32030657 90.92940706 38.09790039 99.40405273 C40.1290751 108.09799797 45.19112723 115.13287063 52.60571289 120.07592773 C60.4182122 124.13022767 68.36354594 124.83564192 76.89868164 122.70483398 C85.43962299 119.63320561 91.00950873 114.77339265 95.09399414 106.68530273 C98.597387 98.72428551 99.01127725 91.06171019 96.19165039 82.72436523 C92.44741451 74.40103006 86.20994849 68.4743433 77.71899414 65.06030273 C63.21214695 61.428186 52.823069 65.76661167 43.09790039 76.40405273 Z M28.66821289 146.37670898 C20.11777567 157.41570629 21.09790039 167.13876682 21.09790039 181.40405273 C52.11790039 181.40405273 83.13790039 181.40405273 115.09790039 181.40405273 C115.09790039 165.85522721 114.92585708 155.07585822 104.50415039 143.65795898 C94.84601857 134.52373526 82.45768501 134.21728633 69.89501953 134.21875 C67.80163037 134.21656964 65.70877432 134.19839501 63.61547852 134.17944336 C49.89988942 134.12013259 38.42117307 136.01135363 28.66821289 146.37670898 Z " fill="#2820FF" transform="translate(71.902099609375,-0.404052734375)"/>
<path d="M0 0 C1.35889844 -0.01653832 2.71771063 -0.04380155 4.07617188 -0.08203125 C6.04088944 -0.13699841 8.00651782 -0.15557123 9.97192383 -0.17333984 C11.14795166 -0.19315918 12.32397949 -0.21297852 13.53564453 -0.23339844 C17.67862336 0.52251571 19.12290778 2.12070956 21.73364258 5.35009766 C23.11736329 9.3282947 22.82630285 11.07211683 21.48364258 15.10009766 C19.73364258 18.35009766 19.73364258 18.35009766 16.73364258 20.35009766 C12.62684764 20.78053257 8.51955483 20.76412442 4.3918457 20.77563477 C2.37172729 20.78752067 0.35467776 20.83669557 -1.66479492 20.88720703 C-2.94354492 20.89429688 -4.22229492 20.90138672 -5.53979492 20.90869141 C-6.70945801 20.922146 -7.87912109 20.93560059 -9.08422852 20.94946289 C-13.18923231 20.17627091 -14.64437217 18.52044659 -17.26635742 15.35009766 C-18.69939806 12.48401637 -18.57279898 10.53708983 -18.26635742 7.35009766 C-13.53163735 -1.01457446 -9.00074658 0.08025729 0 0 Z " fill="#2820FF" transform="translate(39.266357421875,180.64990234375)"/>
<path d="M0 0 C1.35889844 -0.01653832 2.71771063 -0.04380155 4.07617188 -0.08203125 C6.04088944 -0.13699841 8.00651782 -0.15557123 9.97192383 -0.17333984 C11.14795166 -0.19315918 12.32397949 -0.21297852 13.53564453 -0.23339844 C17.67862336 0.52251571 19.12290778 2.12070956 21.73364258 5.35009766 C23.11736329 9.3282947 22.82630285 11.07211683 21.48364258 15.10009766 C19.73364258 18.35009766 19.73364258 18.35009766 16.73364258 20.35009766 C12.62684764 20.78053257 8.51955483 20.76412442 4.3918457 20.77563477 C2.37172729 20.78752067 0.35467776 20.83669557 -1.66479492 20.88720703 C-2.94354492 20.89429688 -4.22229492 20.90138672 -5.53979492 20.90869141 C-6.70945801 20.922146 -7.87912109 20.93560059 -9.08422852 20.94946289 C-13.18923231 20.17627091 -14.64437217 18.52044659 -17.26635742 15.35009766 C-18.69939806 12.48401637 -18.57279898 10.53708983 -18.26635742 7.35009766 C-13.53163735 -1.01457446 -9.00074658 0.08025729 0 0 Z " fill="#2820FF" transform="translate(39.266357421875,117.64990234375)"/>
<path d="M0 0 C1.35889844 -0.01653832 2.71771063 -0.04380155 4.07617188 -0.08203125 C6.04088944 -0.13699841 8.00651782 -0.15557123 9.97192383 -0.17333984 C11.14795166 -0.19315918 12.32397949 -0.21297852 13.53564453 -0.23339844 C17.67862336 0.52251571 19.12290778 2.12070956 21.73364258 5.35009766 C23.11736329 9.3282947 22.82630285 11.07211683 21.48364258 15.10009766 C19.73364258 18.35009766 19.73364258 18.35009766 16.73364258 20.35009766 C12.62684764 20.78053257 8.51955483 20.76412442 4.3918457 20.77563477 C2.37172729 20.78752067 0.35467776 20.83669557 -1.66479492 20.88720703 C-2.94354492 20.89429687 -4.22229492 20.90138672 -5.53979492 20.90869141 C-6.70945801 20.922146 -7.87912109 20.93560059 -9.08422852 20.94946289 C-13.18923231 20.17627091 -14.64437217 18.52044659 -17.26635742 15.35009766 C-18.69939806 12.48401637 -18.57279898 10.53708983 -18.26635742 7.35009766 C-13.53163735 -1.01457446 -9.00074658 0.08025729 0 0 Z " fill="#2820FF" transform="translate(39.266357421875,54.64990234375)"/>
</svg>
